# xmcd
# Track frame offsets:
# 150
# 10712
# 30237
# 45110
# 59601
# 69784
# 84621
# 101628
# 118130
# 135377
# 152827
# 170986
# 186621
# 199474
#
# Disc length: 2887 seconds
# Revision: 0
# Processed by: cddbd v1.5.2PL0 Copyright (c) Steve Scherf et al.
# Submitted via: VisiTrax 2.10.3.257 - For more info visit www.synapsa.com
#
DISCID=bd0b450e
DTITLE=Ben and Carmen Steneker - Country Café
DYEAR=2007
DGENRE=
TTITLE0=Ben and Carmen Steneker - Turtle Dovin'
TTITLE1=Ben and Carmen Steneker - Love and Happiness
TTITLE2=Ben and Carmen Steneker - Sweet as sweet can be
TTITLE3=Carmen Steneker - A song I can sing
TTITLE4=Ben and Carmen Steneker - Country Café
TTITLE5=Ben and Carmen Steneker - Blue Hearts
TTITLE6=Ben Steneker - Tamara
TTITLE7=Duet Carmen and Dick van Altena - It turned out to be you
TTITLE8=Ben Steneker - Waikiki
TTITLE9=Carmen Steneker - Gonna wanna have you
TTITLE10=Ben Steneker - World of Oz
TTITLE11=Ben and Carmen Steneker - Love's an Angel
TTITLE12=Ben Steneker - It keeps right on a hurtin'
TTITLE13=Carmen Steneker - 50.000 Names carved in a Wall
EXTD=
EXTT0=
EXTT1=
EXTT2=
EXTT3=
EXTT4=
EXTT5=
EXTT6=
EXTT7=
EXTT8=
EXTT9=
EXTT10=
EXTT11=
EXTT12=
EXTT13=
PLAYORDER=
